<svg width="54" height="26" viewBox="0 0 54 26" fill="none" xmlns="http://www.w3.org/2000/svg">
<path d="M0 11.4423H24.9231V21.8269C24.9231 24.121 23.0633 25.9808 20.7692 25.9808H4.15385C1.85974 25.9808 0 24.121 0 21.8269V11.4423Z" fill="#3B3B3B"/>
<path d="M29.0769 11.4423H54V21.8269C54 24.121 52.1403 25.9808 49.8462 25.9808H33.2308C30.9367 25.9808 29.0769 24.121 29.0769 21.8269V11.4423Z" fill="#3B3B3B"/>
<path d="M14.5385 11.4423H37.3846V17.6731H14.5385V11.4423Z" fill="#3B3B3B"/>
<path d="M15.5769 0.0192261V3.13461L9.77376 11.4423H0L15.5769 0.0192261Z" fill="#3B3B3B"/>
<path d="M38.4231 0.0192261V3.13461L44.2262 11.4423H54L38.4231 0.0192261Z" fill="#3B3B3B"/>
<path d="M2.07692 14.0192C2.07692 13.7431 2.30078 13.5192 2.57692 13.5192H22.3462C22.6223 13.5192 22.8462 13.7431 22.8462 14.0192V22.9038C22.8462 23.4561 22.3984 23.9038 21.8462 23.9038H3.07692C2.52464 23.9038 2.07692 23.4561 2.07692 22.9038V14.0192Z" fill="#D9D9D9"/>
<circle cx="12.4615" cy="18.7115" r="2.65385" stroke="#3B3B3B" stroke-width="3"/>
<path d="M31.1538 14.0192C31.1538 13.7431 31.3777 13.5192 31.6538 13.5192H51.4231C51.6992 13.5192 51.9231 13.7431 51.9231 14.0192V22.9038C51.9231 23.4561 51.4754 23.9038 50.9231 23.9038H32.1538C31.6016 23.9038 31.1538 23.4561 31.1538 22.9038V14.0192Z" fill="#D9D9D9"/>
<circle cx="41.5385" cy="18.7115" r="2.65385" stroke="#3B3B3B" stroke-width="3"/>
</svg>
